<svg width="24" height="24" viewBox="0 0 24 24" fill="none" xmlns="http://www.w3.org/2000/svg"><path d="M12 1C12.5523 1 13 1.44772 13 2V3C13 3.55228 12.5523 4 12 4C11.4477 4 11 3.55228 11 3V2C11 1.44772 11.4477 1 12 1Z" fill="currentColor"></path><path fill-rule="evenodd" clip-rule="evenodd" d="M12 19C15.866 19 19 15.866 19 12C19 8.13401 15.866 5 12 5C8.13401 5 5 8.13401 5 12C5 15.866 8.13401 19 12 19ZM12 17C14.7614 17 17 14.7614 17 12C17 9.23858 14.7614 7 12 7C9.23858 7 7 9.23858 7 12C7 14.7614 9.23858 17 12 17Z" fill="currentColor"></path><path d="M13 21C13 20.4477 12.5523 20 12 20C11.4477 20 11 20.4477 11 21V22C11 22.5523 11.4477 23 12 23C12.5523 23 13 22.5523 13 22V21Z" fill="currentColor"></path><path d="M19.7782 4.22176C20.1687 4.61228 20.1687 5.24544 19.7782 5.63597L19.071 6.34308C18.6805 6.7336 18.0474 6.7336 17.6568 6.34308C17.2663 5.95255 17.2663 5.31939 17.6568 4.92886L18.3639 4.22176C18.7545 3.83123 19.3876 3.83123 19.7782 4.22176Z" fill="currentColor"></path><path d="M6.34315 19.071C6.73368 18.6805 6.73368 18.0473 6.34315 17.6568C5.95263 17.2663 5.31946 17.2663 4.92894 17.6568L4.22183 18.3639C3.83131 18.7544 3.83131 19.3876 4.22183 19.7781C4.61236 20.1687 5.24552 20.1687 5.63605 19.7781L6.34315 19.071Z" fill="currentColor"></path><path d="M19.7781 19.7782C19.3876 20.1687 18.7544 20.1687 18.3639 19.7782L17.6568 19.071C17.2663 18.6805 17.2663 18.0474 17.6568 17.6568C18.0473 17.2663 18.6805 17.2663 19.071 17.6568L19.7781 18.3639C20.1686 18.7545 20.1686 19.3876 19.7781 19.7782Z" fill="currentColor"></path><path d="M4.92885 6.34309C5.31938 6.73362 5.95254 6.73362 6.34306 6.34309C6.73359 5.95257 6.73359 5.3194 6.34306 4.92888L5.63596 4.22177C5.24543 3.83125 4.61227 3.83125 4.22174 4.22177C3.83122 4.6123 3.83122 5.24546 4.22174 5.63599L4.92885 6.34309Z" fill="currentColor"></path><path d="M23 12C23 12.5523 22.5523 13 22 13H21C20.4477 13 20 12.5523 20 12C20 11.4477 20.4477 11 21 11H22C22.5523 11 23 11.4477 23 12Z" fill="currentColor"></path><path d="M3 13C3.55228 13 4 12.5523 4 12C4 11.4477 3.55228 11 3 11H2C1.44772 11 1 11.4477 1 12C1 12.5523 1.44772 13 2 13H3Z" fill="currentColor"></path></svg>
