<svg width="24" height="24" viewBox="0 0 24 24" fill="none" xmlns="http://www.w3.org/2000/svg"><path fill-rule="evenodd" clip-rule="evenodd" d="M9.99665 4.25265C11.8118 5.51705 13 7.61909 13 10C13 13.866 9.866 17 6 17C5.91664 17 5.83359 16.9985 5.75089 16.9956C7.21755 18.8278 9.47256 20 12 20C16.4183 20 20 16.4183 20 12C20 7.58172 16.4183 4 12 4C11.3076 4 10.6365 4.08775 9.99665 4.25265ZM7.01924 3.32692C8.48662 2.4826 10.1885 2 12 2C17.5229 2 22 6.47715 22 12C22 17.5228 17.5229 22 12 22C7.87872 22 4.34196 19.5071 2.8111 15.951C2.6505 15.5779 2.73151 15.1447 3.0161 14.8549C3.30069 14.5651 3.73231 14.4762 4.10825 14.63C4.69049 14.8682 5.32861 15 6 15C8.76143 15 11 12.7614 11 10C11 7.67697 9.41488 5.72164 7.26569 5.16133C6.87286 5.05892 6.58092 4.72918 6.52687 4.32683C6.47281 3.92449 6.66736 3.52938 7.01924 3.32692Z" fill="currentColor"></path></svg>
