<svg width="36" height="36" viewBox="0 0 36 36" fill="none" xmlns="http://www.w3.org/2000/svg">
<g clip-path="url(#clip0_201_23)">
<mask id="mask0_201_23" style="mask-type:luminance" maskUnits="userSpaceOnUse" x="0" y="0" width="36" height="36">
<path fill-rule="evenodd" clip-rule="evenodd" d="M18 36C27.9411 36 36 27.9411 36 18C36 8.05887 27.9411 0 18 0C8.05887 0 0 8.05887 0 18C0 27.9411 8.05887 36 18 36ZM18 34.3636C27.0374 34.3636 34.3636 27.0374 34.3636 18C34.3636 8.96263 27.0374 1.63636 18 1.63636C8.96263 1.63636 1.63636 8.96263 1.63636 18C1.63636 27.0374 8.96263 34.3636 18 34.3636Z" fill="white"/>
</mask>
<g mask="url(#mask0_201_23)">
<path d="M34.2857 18C34.2857 26.9943 26.9943 34.2857 18 34.2857V37.7143C28.8879 37.7143 37.7143 28.8878 37.7143 18H34.2857ZM18 1.71428C26.9943 1.71428 34.2857 9.00565 34.2857 18H37.7143C37.7143 7.11209 28.8879 -1.71429 18 -1.71429V1.71428ZM1.71428 18C1.71428 9.00565 9.00566 1.71428 18 1.71428V-1.71429C7.1121 -1.71429 -1.71429 7.11209 -1.71429 18H1.71428ZM18 34.2857C9.00566 34.2857 1.71428 26.9943 1.71428 18H-1.71429C-1.71429 28.8878 7.1121 37.7143 18 37.7143V34.2857ZM32.6493 18C32.6493 26.0906 26.0906 32.6493 18 32.6493V36.0779C27.9842 36.0779 36.0779 27.9842 36.0779 18H32.6493ZM18 3.35064C26.0906 3.35064 32.6493 9.90942 32.6493 18H36.0779C36.0779 8.01583 27.9842 -0.0779309 18 -0.0779309V3.35064ZM3.35065 18C3.35065 9.90942 9.90943 3.35064 18 3.35064V-0.0779309C8.01584 -0.0779309 -0.0779233 8.01583 -0.0779233 18H3.35065ZM18 32.6493C9.90943 32.6493 3.35065 26.0906 3.35065 18H-0.0779233C-0.0779233 27.9842 8.01584 36.0779 18 36.0779V32.6493Z" fill="url(#paint0_linear_201_23)"/>
</g>
</g>
<defs>
<linearGradient id="paint0_linear_201_23" x1="-1.25429e-06" y1="18" x2="36" y2="18" gradientUnits="userSpaceOnUse">
<stop stop-color="#FF5C4D"/>
<stop offset="0.3" stop-color="#EB469F"/>
<stop offset="0.75" stop-color="#8341EF"/>
<stop offset="1" stop-color="#3F68F9"/>
</linearGradient>
<clipPath id="clip0_201_23">
<rect width="36" height="36" fill="white"/>
</clipPath>
</defs>
</svg>
