<svg width="24" height="24" viewBox="0 0 24 24" fill="none" xmlns="http://www.w3.org/2000/svg">
<g clip-path="url(#clip0_2_8)">
<path d="M18.0722 4.52191H5.80893V19.3796H18.0722V4.52191Z" fill="white"/>
<path d="M12.0117 -0.0599365C5.37958 -0.0599365 0 5.30425 0 11.8971C0 18.5099 5.37958 23.8592 12.0117 23.8592C18.6189 23.8592 23.9985 18.5099 23.9985 11.8971C23.9985 5.30425 18.6189 -0.0599365 12.0117 -0.0599365ZM13.2593 19.0044H10.7841V14.9288L6.11815 4.76983H8.69815L12.3361 12.7162C13.0347 14.2346 13.2593 14.764 13.2593 16.587V19.0044ZM14.8762 11.6524H12.3561L15.3852 4.76983H17.9053L14.8762 11.6524Z" fill="#FC3F1D"/>
</g>
<defs>
<clipPath id="clip0_2_8">
<rect width="24" height="24" fill="white"/>
</clipPath>
</defs>
</svg>
