<svg width="24" height="24" viewBox="0 0 24 24" fill="none" xmlns="http://www.w3.org/2000/svg">
<g clip-path="url(#clip0_2_11)">
<path d="M18.0722 4.52191H5.80893V19.3796H18.0722V4.52191Z" fill="white"/>
<path d="M12.0117 -0.0599365C5.37958 -0.0599365 0 5.30425 0 11.8971C0 18.5099 5.37958 23.8592 12.0117 23.8592C18.6189 23.8592 23.9985 18.5099 23.9985 11.8971C23.9985 5.30425 18.6189 -0.0599365 12.0117 -0.0599365ZM13.5637 19.0044V6.69774H12.4609C10.4348 6.69774 9.37184 7.72163 9.37184 9.23499C9.37184 10.9581 10.1054 11.7523 11.6225 12.7762L12.8701 13.6202L9.26705 19.0044H6.58724L9.82097 14.1896C7.95958 12.8611 6.9166 11.5675 6.9166 9.37984C6.9166 6.63281 8.81792 4.76983 12.4409 4.76983H16.0389V19.0044H13.5637Z" fill="#FC3F1D"/>
</g>
<defs>
<clipPath id="clip0_2_11">
<rect width="24" height="24" fill="white"/>
</clipPath>
</defs>
</svg>
